<?xml version="1.0" standalone="no"?>
<!DOCTYPE svg PUBLIC "-//W3C//DTD SVG 20010904//EN"
 "http://www.w3.org/TR/2001/REC-SVG-20010904/DTD/svg10.dtd">
<svg version="1.0" xmlns="http://www.w3.org/2000/svg"
 width="400.000000pt" height="400.000000pt" viewBox="0 0 400.000000 400.000000"
 preserveAspectRatio="xMidYMid meet">
<metadata>
Created by potrace 1.14, written by Peter Selinger 2001-2017
</metadata>
<g transform="translate(0.000000,400.000000) scale(0.100000,-0.100000)"
fill="#000000" stroke="none">
<path d="M1735 3456 c-137 -36 -296 -119 -360 -187 -104 -111 -136 -167 -228
-400 -74 -189 -81 -214 -101 -369 -25 -181 -20 -172 -107 -191 -41 -8 -111
-32 -155 -52 -45 -21 -101 -44 -124 -52 -52 -18 -96 -51 -204 -149 -150 -136
-195 -229 -201 -411 -4 -125 8 -185 57 -283 50 -100 120 -146 285 -188 166
-42 260 -37 371 20 l53 27 47 -49 c26 -26 77 -75 115 -107 136 -120 206 -139
547 -150 153 -4 172 -3 258 20 119 32 229 74 367 141 83 40 143 79 241 158 72
57 152 128 178 158 95 108 178 264 242 460 l29 86 90 -1 c75 -2 99 2 145 22
227 98 414 340 440 569 4 42 7 91 6 107 -14 151 -20 200 -31 265 -17 95 -42
163 -89 233 -42 63 -169 188 -216 212 -61 31 -213 76 -261 77 -52 0 -144 -24
-199 -52 -52 -27 -185 -154 -229 -219 -81 -119 -146 -291 -180 -471 l-19 -105
-2 95 c-2 166 -23 266 -79 380 -15 30 -43 93 -61 140 -44 109 -104 171 -226
232 l-86 42 -132 3 c-85 2 -149 -2 -181 -11z m265 -66 c116 -22 265 -129 284
-204 3 -14 31 -79 60 -143 76 -165 85 -221 86 -504 2 -259 9 -303 52 -297 21
3 23 10 29 83 3 44 17 130 32 190 14 61 35 152 46 202 27 125 92 286 150 375
55 84 172 197 234 226 60 28 137 44 177 37 66 -11 188 -56 234 -87 62 -40 159
-149 194 -217 36 -69 49 -123 68 -271 26 -212 17 -286 -52 -420 -88 -172 -227
-301 -373 -345 -25 -8 -141 -8 -148 -1 -3 2 0 28 6 58 14 69 19 117 20 203 l1
71 32 2 c40 3 116 37 146 65 123 115 91 468 -56 610 -50 49 -145 104 -192 112
-96 16 -186 -52 -257 -197 -79 -160 -101 -261 -97 -436 3 -86 9 -128 28 -184
48 -143 130 -260 225 -323 47 -32 47 -20 -6 -164 -66 -178 -130 -294 -217
-393 -45 -51 -247 -215 -313 -255 -73 -43 -283 -129 -397 -163 -119 -35 -187
-40 -404 -26 -242 15 -280 33 -492 232 -36 34 -72 64 -80 66 -8 3 -49 -12 -91
-34 -68 -35 -83 -39 -150 -39 -88 0 -248 38 -317 76 -79 43 -133 146 -146 278
-4 38 -1 52 14 67 11 11 26 20 33 20 12 0 57 -27 67 -40 10 -14 49 -30 70 -30
12 0 37 15 55 32 74 74 69 72 104 43 28 -24 31 -33 31 -80 0 -40 4 -54 17 -59
30 -12 36 11 36 131 0 126 -6 163 -28 163 -16 0 -25 -22 -25 -66 0 -33 -12
-45 -25 -24 -10 16 -58 12 -85 -7 -14 -9 -39 -33 -56 -52 l-32 -35 -51 33
c-43 28 -57 32 -87 26 l-36 -6 6 38 c4 21 22 70 41 109 35 71 106 148 225 246
60 48 283 143 394 167 49 11 92 23 96 28 4 4 13 46 20 93 17 113 18 117 25
175 11 89 24 131 89 297 79 200 122 278 197 361 52 58 71 70 176 118 65 29
140 58 166 64 67 15 182 18 247 5z m1085 -349 c134 -77 197 -205 197 -402 0
-106 -27 -164 -92 -196 -24 -13 -53 -23 -64 -23 -21 0 -21 2 0 275 6 73 4 82
-14 99 -16 14 -30 17 -56 12 -75 -14 -135 -98 -136 -187 0 -68 34 -168 73
-214 33 -40 34 -40 30 -130 -4 -108 -21 -223 -34 -231 -16 -9 -124 108 -162
177 -59 105 -77 171 -82 289 -6 151 18 255 88 395 79 159 148 196 252 136z
m-40 -403 c-7 -86 -9 -105 -14 -148 -3 -20 -29 51 -36 98 -6 43 7 97 31 123
10 11 19 19 22 19 2 0 1 -42 -3 -92z"/>
<path d="M3078 3309 c-10 -5 -18 -18 -18 -28 0 -13 -8 -18 -31 -19 -37 -1 -43
-6 -35 -28 5 -13 15 -15 46 -11 48 6 70 -10 63 -46 -5 -28 13 -45 30 -28 6 6
20 11 32 11 32 0 84 37 90 65 3 14 7 36 10 49 4 19 0 26 -16 31 -28 9 -42 -6
-43 -47 -1 -31 -3 -33 -31 -30 -39 5 -55 19 -51 46 3 20 -10 46 -23 46 -3 0
-14 -5 -23 -11z"/>
<path d="M3314 3225 c-9 -13 -13 -33 -9 -44 7 -23 -11 -37 -29 -22 -14 12 -26
5 -26 -16 0 -8 12 -13 30 -13 23 0 33 -6 40 -25 8 -21 5 -33 -16 -66 -29 -46
-27 -55 8 -38 19 8 31 8 48 -1 12 -6 23 -10 24 -8 9 10 -14 141 -28 162 -15
24 -15 26 10 50 15 13 23 29 20 35 -13 20 -55 12 -72 -14z"/>
<path d="M1630 2644 c-67 -18 -96 -36 -165 -103 -149 -145 -236 -360 -235
-581 0 -212 31 -310 131 -415 98 -104 198 -137 424 -139 l150 -1 73 37 c97 49
232 148 281 205 102 119 132 283 87 476 -28 121 -67 181 -211 329 -82 83 -109
103 -197 149 -99 50 -106 52 -193 55 -55 1 -112 -3 -145 -12z m193 -69 c32 -8
68 -21 80 -29 12 -7 52 -23 89 -35 59 -20 73 -30 135 -97 146 -162 193 -272
194 -455 0 -108 -19 -176 -71 -246 -39 -53 -184 -162 -277 -208 -73 -36 -73
-36 -199 -34 -183 2 -271 30 -358 114 -85 83 -117 182 -118 364 -1 134 15 209
67 318 44 94 85 153 152 219 64 64 100 84 168 94 75 11 76 11 138 -5z"/>
<path d="M1650 2378 c-54 -15 -103 -61 -140 -130 -32 -61 -33 -67 -31 -168 3
-215 19 -276 89 -346 83 -82 176 -106 314 -80 104 20 132 44 198 168 56 106
71 153 71 224 1 133 -33 181 -187 261 -150 78 -228 96 -314 71z m255 -112
c134 -68 160 -89 175 -147 18 -67 7 -136 -39 -233 -72 -149 -111 -176 -262
-176 -74 0 -113 16 -163 65 -45 46 -54 67 -72 160 -27 146 -11 271 43 336 67
79 153 78 318 -5z"/>
<path d="M1751 2131 c-13 -12 -29 -21 -36 -21 -17 0 -62 -51 -74 -83 -15 -40
-14 -103 3 -136 23 -44 62 -64 127 -65 96 -2 141 47 140 154 0 97 -36 156
-102 166 -26 4 -40 1 -58 -15z m67 -83 c7 -7 12 -37 12 -68 0 -65 -11 -80 -59
-80 -45 0 -58 8 -66 41 -11 43 18 96 57 108 45 13 42 13 56 -1z"/>
<path d="M1018 1699 c-36 -35 -37 -81 -3 -186 32 -101 37 -109 58 -89 26 26
95 159 100 192 15 95 -88 149 -155 83z"/>
</g>
</svg>
